# xmcd CD database file
#
# Track frame offsets:
#	150
#	11922
#	35542
#	49025
#	60615
#	73200
#	89757
#	100747
#	112160
#	123757
#	135827
#	145377
#	165875
#	181382
#	192022
#	206342
#
# Disc length: 3017 seconds
#
# Revision: 1
# Processed by: cddbd v1.5.2PL0 Copyright (c) Steve Scherf et al.
# Submitted via: CDex 1.51
#
DISCID=de0bc710
DTITLE=Sarah Vaughan - The Diva Series
DYEAR=2003
DGENRE=Blues
TTITLE0=How High the Moon
TTITLE1=Cheek to Cheek
TTITLE2=Misty
TTITLE3=Old Devil Moon
TTITLE4=Shake Down the Stars
TTITLE5=A Sinner Kissed an Angel
TTITLE6=It's Got to Be Love
TTITLE7=Just One of Those Things
TTITLE8=I'll Never Smile Again
TTITLE9=I Can't Give You Anything but Love
TTITLE10=What Is This Thing Called Love?
TTITLE11=Words Can't Describe
TTITLE12=Shiny Stockings
TTITLE13=I Want to Be Happy
TTITLE14=Tenderly
TTITLE15=Every Day I Have the Blues
EXTD=YEAR: 2003
EXTT0=
EXTT1=
EXTT2=
EXTT3=
EXTT4=
EXTT5=
EXTT6=
EXTT7=
EXTT8=
EXTT9=
EXTT10=
EXTT11=
EXTT12=
EXTT13=
EXTT14=
EXTT15=
PLAYORDER=
